<?xml version="1.0" encoding="UTF-8"?>
<svg width="100px" height="100px" viewBox="0 0 100 100" version="1.1" xmlns="http://www.w3.org/2000/svg" xmlns:xlink="http://www.w3.org/1999/xlink">
    <!-- Generator: Sketch 47.1 (45422) - http://www.bohemiancoding.com/sketch -->
    <title>MASSLIVElmg_</title>
    <desc>Created with Sketch.</desc>
    <defs></defs>
    <g id="Symbols" stroke="none" stroke-width="1" fill="none" fill-rule="evenodd">
        <g id="MASSLIVE">
            <g id="Page-1">
                <polygon id="Fill-1" fill="#FEFEFE" points="6.3008096 74.2954603 70.445881 74.2954603 70.445881 10.4589235 6.3008096 10.4589235"></polygon>
                <g id="Group-4" transform="translate(0.000000, 0.140914)" fill="#EB2126">
                    <path d="M66.4787403,71.0019818 L66.4787403,11.4650416 L52.0946665,11.4650416 L38.7146084,37.723434 L25.333982,11.4650416 L10.9510446,11.4650416 L10.9510446,71.0019818 L25.585128,71.0019818 L25.585128,42.4906621 L34.0314744,57.2088397 L43.3977423,57.2088397 L51.8440887,42.4906621 L51.8440887,71.0019818 L66.4787403,71.0019818 Z M71.5050693,0.427118638 C74.9233821,0.427118638 77.5416642,2.4004897 77.5416642,6.03528806 L77.5416642,71.9667915 C77.5416642,74.6009834 78.5979547,80.4057512 84.8567172,82.5620839 C91.2012785,84.7490995 95.5571272,80.5012094 97.3157173,78.7437557 C99.0714664,76.9874384 99.9033165,78.0039547 99.8419505,79.4210544 C99.7800163,80.837586 98.8555491,86.1974504 93.558187,90.5095475 C88.2608249,94.8216445 79.2667303,95.191545 73.3528674,93.0357806 C67.75038,90.9919523 64.3587728,86.1360844 64.3587728,86.1360844 L6.03721996,86.1360844 C2.1973001,86.1360844 5.68203589e-05,83.5893959 5.68203589e-05,80.3244981 L5.68203589e-05,6.12563243 C5.68203589e-05,2.9226688 2.29446291,0.427118638 5.7906196,0.427118638 L71.5050693,0.427118638 Z" id="Fill-2"></path>
                </g>
            </g>
        </g>
    </g>
</svg>